<mxfile host="Electron" modified="2024-02-05T01:38:56.220Z" agent="Mozilla/5.0 (Windows NT 10.0; Win64; x64) AppleWebKit/537.36 (KHTML, like Gecko) draw.io/22.1.2 Chrome/114.0.5735.289 Electron/25.9.4 Safari/537.36" etag="jzb0bvE1wkm5XYaPGOYA" version="22.1.2" type="device">
  <diagram name="第 1 页" id="AAMnr0W5KIoup8fi5rs1">
    <mxGraphModel dx="1736" dy="537" grid="1" gridSize="10" guides="0" tooltips="1" connect="1" arrows="1" fold="1" page="0" pageScale="1" pageWidth="827" pageHeight="1169" background="#FFFFFF" math="0" shadow="0">
      <root>
        <mxCell id="0" />
        <mxCell id="1" parent="0" />
        <mxCell id="beGZYDFZV5x5-5D6ffd--1" value="" style="endArrow=classic;html=1;rounded=0;movable=1;resizable=1;rotatable=1;deletable=1;editable=1;locked=0;connectable=1;" parent="1" edge="1">
          <mxGeometry relative="1" as="geometry">
            <mxPoint x="40" y="160" as="sourcePoint" />
            <mxPoint x="640" y="160" as="targetPoint" />
          </mxGeometry>
        </mxCell>
        <mxCell id="beGZYDFZV5x5-5D6ffd--3" value="Client-Master" style="edgeLabel;resizable=1;html=1;align=left;verticalAlign=bottom;movable=1;rotatable=1;deletable=1;editable=1;locked=0;connectable=1;" parent="beGZYDFZV5x5-5D6ffd--1" connectable="0" vertex="1">
          <mxGeometry x="-1" relative="1" as="geometry">
            <mxPoint x="-2" as="offset" />
          </mxGeometry>
        </mxCell>
        <mxCell id="beGZYDFZV5x5-5D6ffd--4" value="" style="endArrow=classic;html=1;rounded=0;movable=1;resizable=1;rotatable=1;deletable=1;editable=1;locked=0;connectable=1;" parent="1" edge="1">
          <mxGeometry relative="1" as="geometry">
            <mxPoint x="40" y="270" as="sourcePoint" />
            <mxPoint x="640" y="270" as="targetPoint" />
          </mxGeometry>
        </mxCell>
        <mxCell id="beGZYDFZV5x5-5D6ffd--6" value="Server" style="edgeLabel;resizable=1;html=1;align=left;verticalAlign=bottom;movable=1;rotatable=1;deletable=1;editable=1;locked=0;connectable=1;" parent="beGZYDFZV5x5-5D6ffd--4" connectable="0" vertex="1">
          <mxGeometry x="-1" relative="1" as="geometry">
            <mxPoint as="offset" />
          </mxGeometry>
        </mxCell>
        <mxCell id="beGZYDFZV5x5-5D6ffd--7" value="" style="endArrow=classic;html=1;rounded=0;movable=1;resizable=1;rotatable=1;deletable=1;editable=1;locked=0;connectable=1;" parent="1" edge="1">
          <mxGeometry relative="1" as="geometry">
            <mxPoint x="40" y="380" as="sourcePoint" />
            <mxPoint x="640" y="380" as="targetPoint" />
          </mxGeometry>
        </mxCell>
        <mxCell id="beGZYDFZV5x5-5D6ffd--9" value="Client-Replication" style="edgeLabel;resizable=1;html=1;align=left;verticalAlign=bottom;movable=1;rotatable=1;deletable=1;editable=1;locked=0;connectable=1;" parent="beGZYDFZV5x5-5D6ffd--7" connectable="0" vertex="1">
          <mxGeometry x="-1" relative="1" as="geometry" />
        </mxCell>
        <mxCell id="beGZYDFZV5x5-5D6ffd--30" value="" style="edgeStyle=orthogonalEdgeStyle;rounded=0;orthogonalLoop=1;jettySize=auto;html=1;" parent="1" source="beGZYDFZV5x5-5D6ffd--17" target="beGZYDFZV5x5-5D6ffd--29" edge="1">
          <mxGeometry relative="1" as="geometry" />
        </mxCell>
        <mxCell id="beGZYDFZV5x5-5D6ffd--17" value="" style="shape=waypoint;sketch=0;fillStyle=solid;size=6;pointerEvents=1;points=[];fillColor=none;resizable=0;rotatable=0;perimeter=centerPerimeter;snapToPoint=1;" parent="1" vertex="1">
          <mxGeometry x="149" y="150" width="20" height="20" as="geometry" />
        </mxCell>
        <mxCell id="beGZYDFZV5x5-5D6ffd--79" value="" style="edgeStyle=orthogonalEdgeStyle;rounded=0;orthogonalLoop=1;jettySize=auto;html=1;" parent="1" source="beGZYDFZV5x5-5D6ffd--24" target="beGZYDFZV5x5-5D6ffd--78" edge="1">
          <mxGeometry relative="1" as="geometry" />
        </mxCell>
        <mxCell id="beGZYDFZV5x5-5D6ffd--24" value="" style="shape=waypoint;sketch=0;fillStyle=solid;size=6;pointerEvents=1;points=[];fillColor=none;resizable=0;rotatable=0;perimeter=centerPerimeter;snapToPoint=1;" parent="1" vertex="1">
          <mxGeometry x="232" y="150" width="20" height="20" as="geometry" />
        </mxCell>
        <mxCell id="beGZYDFZV5x5-5D6ffd--29" value="&lt;font style=&quot;font-size: 7px;&quot;&gt;Input&lt;/font&gt;" style="whiteSpace=wrap;html=1;fillColor=none;sketch=0;fillStyle=solid;" parent="1" vertex="1">
          <mxGeometry x="141.75" y="107" width="34.5" height="10" as="geometry" />
        </mxCell>
        <mxCell id="beGZYDFZV5x5-5D6ffd--31" value="" style="shape=waypoint;sketch=0;fillStyle=solid;size=6;pointerEvents=1;points=[];fillColor=none;resizable=0;rotatable=0;perimeter=centerPerimeter;snapToPoint=1;" parent="1" vertex="1">
          <mxGeometry x="230" y="260" width="20" height="20" as="geometry" />
        </mxCell>
        <mxCell id="beGZYDFZV5x5-5D6ffd--34" value="" style="shape=waypoint;sketch=0;fillStyle=solid;size=6;pointerEvents=1;points=[];fillColor=none;resizable=0;rotatable=0;perimeter=centerPerimeter;snapToPoint=1;" parent="1" vertex="1">
          <mxGeometry x="230" y="370" width="20" height="20" as="geometry" />
        </mxCell>
        <mxCell id="beGZYDFZV5x5-5D6ffd--44" value="" style="endArrow=classic;html=1;rounded=0;" parent="1" source="beGZYDFZV5x5-5D6ffd--17" target="beGZYDFZV5x5-5D6ffd--31" edge="1">
          <mxGeometry width="50" height="50" relative="1" as="geometry">
            <mxPoint x="330" y="220" as="sourcePoint" />
            <mxPoint x="380" y="170" as="targetPoint" />
          </mxGeometry>
        </mxCell>
        <mxCell id="beGZYDFZV5x5-5D6ffd--45" value="" style="shape=waypoint;sketch=0;fillStyle=solid;size=6;pointerEvents=1;points=[];fillColor=none;resizable=0;rotatable=0;perimeter=centerPerimeter;snapToPoint=1;" parent="1" vertex="1">
          <mxGeometry x="149" y="260" width="20" height="20" as="geometry" />
        </mxCell>
        <mxCell id="beGZYDFZV5x5-5D6ffd--46" value="" style="endArrow=classic;html=1;rounded=0;" parent="1" target="beGZYDFZV5x5-5D6ffd--53" edge="1">
          <mxGeometry width="50" height="50" relative="1" as="geometry">
            <mxPoint x="242" y="270" as="sourcePoint" />
            <mxPoint x="282" y="380" as="targetPoint" />
          </mxGeometry>
        </mxCell>
        <mxCell id="beGZYDFZV5x5-5D6ffd--47" value="" style="shape=waypoint;sketch=0;fillStyle=solid;size=6;pointerEvents=1;points=[];fillColor=none;resizable=0;rotatable=0;perimeter=centerPerimeter;snapToPoint=1;" parent="1" vertex="1">
          <mxGeometry x="270" y="10" width="20" height="20" as="geometry" />
        </mxCell>
        <mxCell id="beGZYDFZV5x5-5D6ffd--48" value="" style="shape=waypoint;sketch=0;fillStyle=solid;size=6;pointerEvents=1;points=[];fillColor=none;resizable=0;rotatable=0;perimeter=centerPerimeter;snapToPoint=1;" parent="1" vertex="1">
          <mxGeometry x="149" y="370" width="20" height="20" as="geometry" />
        </mxCell>
        <mxCell id="beGZYDFZV5x5-5D6ffd--53" value="" style="shape=waypoint;sketch=0;fillStyle=solid;size=6;pointerEvents=1;points=[];fillColor=none;resizable=0;rotatable=0;perimeter=centerPerimeter;snapToPoint=1;" parent="1" vertex="1">
          <mxGeometry x="310" y="370" width="20" height="20" as="geometry" />
        </mxCell>
        <mxCell id="beGZYDFZV5x5-5D6ffd--54" value="&lt;font style=&quot;font-size: 7px;&quot;&gt;校验是否合法&lt;/font&gt;" style="rhombus;whiteSpace=wrap;html=1;fillColor=none;strokeColor=#330000;sketch=0;fillStyle=solid;" parent="1" vertex="1">
          <mxGeometry x="280" y="210" width="80" height="30" as="geometry" />
        </mxCell>
        <mxCell id="beGZYDFZV5x5-5D6ffd--59" value="" style="shape=waypoint;sketch=0;fillStyle=solid;size=6;pointerEvents=1;points=[];fillColor=none;resizable=0;rotatable=0;perimeter=centerPerimeter;snapToPoint=1;" parent="1" vertex="1">
          <mxGeometry x="280" y="20" width="20" height="20" as="geometry" />
        </mxCell>
        <mxCell id="beGZYDFZV5x5-5D6ffd--60" value="" style="shape=waypoint;sketch=0;fillStyle=solid;size=6;pointerEvents=1;points=[];fillColor=none;resizable=0;rotatable=0;perimeter=centerPerimeter;snapToPoint=1;" parent="1" vertex="1">
          <mxGeometry x="310" y="150" width="20" height="20" as="geometry" />
        </mxCell>
        <mxCell id="beGZYDFZV5x5-5D6ffd--61" value="" style="shape=waypoint;sketch=0;fillStyle=solid;size=6;pointerEvents=1;points=[];fillColor=none;resizable=0;rotatable=0;perimeter=centerPerimeter;snapToPoint=1;" parent="1" vertex="1">
          <mxGeometry x="390" y="150" width="20" height="20" as="geometry" />
        </mxCell>
        <mxCell id="beGZYDFZV5x5-5D6ffd--63" value="" style="shape=waypoint;sketch=0;fillStyle=solid;size=6;pointerEvents=1;points=[];fillColor=none;resizable=0;rotatable=0;perimeter=centerPerimeter;snapToPoint=1;" parent="1" vertex="1">
          <mxGeometry x="390" y="370" width="20" height="20" as="geometry" />
        </mxCell>
        <mxCell id="beGZYDFZV5x5-5D6ffd--64" value="" style="endArrow=classic;html=1;rounded=0;exitX=0.488;exitY=0.695;exitDx=0;exitDy=0;exitPerimeter=0;" parent="1" source="beGZYDFZV5x5-5D6ffd--24" target="beGZYDFZV5x5-5D6ffd--92" edge="1">
          <mxGeometry width="50" height="50" relative="1" as="geometry">
            <mxPoint x="260" y="180" as="sourcePoint" />
            <mxPoint x="340" y="290" as="targetPoint" />
          </mxGeometry>
        </mxCell>
        <mxCell id="beGZYDFZV5x5-5D6ffd--67" value="&lt;font style=&quot;font-size: 7px;&quot;&gt;M: 全程物理模拟&lt;br&gt;R:根据最后一次的输出外插&lt;/font&gt;" style="rounded=1;whiteSpace=wrap;html=1;align=left;movable=1;resizable=1;rotatable=1;deletable=1;editable=1;locked=0;connectable=1;" parent="1" vertex="1">
          <mxGeometry x="380" y="10" width="98" height="30" as="geometry" />
        </mxCell>
        <mxCell id="beGZYDFZV5x5-5D6ffd--68" value="" style="shape=waypoint;sketch=0;fillStyle=solid;size=6;pointerEvents=1;points=[];fillColor=none;resizable=0;rotatable=0;perimeter=centerPerimeter;snapToPoint=1;" parent="1" vertex="1">
          <mxGeometry x="470" y="149" width="20" height="20" as="geometry" />
        </mxCell>
        <mxCell id="beGZYDFZV5x5-5D6ffd--71" value="" style="shape=waypoint;sketch=0;fillStyle=solid;size=6;pointerEvents=1;points=[];fillColor=none;resizable=0;rotatable=0;perimeter=centerPerimeter;snapToPoint=1;" parent="1" vertex="1">
          <mxGeometry x="470" y="369" width="20" height="20" as="geometry" />
        </mxCell>
        <mxCell id="beGZYDFZV5x5-5D6ffd--72" value="" style="shape=crossbar;whiteSpace=wrap;html=1;rounded=1;movable=1;resizable=1;rotatable=1;deletable=1;editable=1;locked=0;connectable=1;" parent="1" vertex="1">
          <mxGeometry x="408" y="50" width="230" height="20" as="geometry" />
        </mxCell>
        <mxCell id="beGZYDFZV5x5-5D6ffd--73" value="" style="shape=crossbar;whiteSpace=wrap;html=1;rounded=1;" parent="1" vertex="1">
          <mxGeometry x="488" y="15" width="80" height="20" as="geometry" />
        </mxCell>
        <mxCell id="beGZYDFZV5x5-5D6ffd--74" value="&lt;font style=&quot;font-size: 7px;&quot;&gt;R:校验上一帧的起始位置是否正确&lt;/font&gt;" style="rounded=1;whiteSpace=wrap;html=1;" parent="1" vertex="1">
          <mxGeometry x="578" y="10" width="90" height="30" as="geometry" />
        </mxCell>
        <mxCell id="beGZYDFZV5x5-5D6ffd--78" value="&lt;font style=&quot;font-size: 7px;&quot;&gt;M:客户端的快照+预测信息&lt;/font&gt;" style="rounded=0;whiteSpace=wrap;html=1;" parent="1" vertex="1">
          <mxGeometry x="197" y="100" width="90" height="21" as="geometry" />
        </mxCell>
        <mxCell id="beGZYDFZV5x5-5D6ffd--92" value="" style="shape=waypoint;sketch=0;fillStyle=solid;size=6;pointerEvents=1;points=[];fillColor=none;resizable=0;rotatable=0;perimeter=centerPerimeter;snapToPoint=1;" parent="1" vertex="1">
          <mxGeometry x="310" y="259" width="20" height="20" as="geometry" />
        </mxCell>
        <mxCell id="beGZYDFZV5x5-5D6ffd--94" value="" style="endArrow=classic;html=1;rounded=0;entryX=0.5;entryY=1;entryDx=0;entryDy=0;" parent="1" source="beGZYDFZV5x5-5D6ffd--92" target="beGZYDFZV5x5-5D6ffd--54" edge="1">
          <mxGeometry width="50" height="50" relative="1" as="geometry">
            <mxPoint x="350" y="260" as="sourcePoint" />
            <mxPoint x="400" y="210" as="targetPoint" />
          </mxGeometry>
        </mxCell>
        <mxCell id="beGZYDFZV5x5-5D6ffd--95" value="" style="endArrow=classic;html=1;rounded=0;entryX=0.66;entryY=0.648;entryDx=0;entryDy=0;entryPerimeter=0;dashed=1;" parent="1" target="beGZYDFZV5x5-5D6ffd--63" edge="1">
          <mxGeometry width="50" height="50" relative="1" as="geometry">
            <mxPoint x="320" y="270" as="sourcePoint" />
            <mxPoint x="440" y="190" as="targetPoint" />
          </mxGeometry>
        </mxCell>
        <mxCell id="beGZYDFZV5x5-5D6ffd--96" value="合法" style="edgeLabel;html=1;align=center;verticalAlign=middle;resizable=0;points=[];" parent="beGZYDFZV5x5-5D6ffd--95" vertex="1" connectable="0">
          <mxGeometry x="0.0716" y="1" relative="1" as="geometry">
            <mxPoint as="offset" />
          </mxGeometry>
        </mxCell>
        <mxCell id="beGZYDFZV5x5-5D6ffd--97" value="" style="shape=waypoint;sketch=0;fillStyle=solid;size=6;pointerEvents=1;points=[];fillColor=none;resizable=0;rotatable=0;perimeter=centerPerimeter;snapToPoint=1;" parent="1" vertex="1">
          <mxGeometry x="390" y="260" width="20" height="20" as="geometry" />
        </mxCell>
        <mxCell id="beGZYDFZV5x5-5D6ffd--98" value="&lt;span style=&quot;font-size: 7px;&quot;&gt;服务器物理模拟&lt;/span&gt;" style="rhombus;whiteSpace=wrap;html=1;fillColor=none;strokeColor=#330000;sketch=0;fillStyle=solid;" parent="1" vertex="1">
          <mxGeometry x="372" y="210" width="80" height="30" as="geometry" />
        </mxCell>
        <mxCell id="beGZYDFZV5x5-5D6ffd--100" value="" style="endArrow=classic;html=1;rounded=0;exitX=0.5;exitY=0;exitDx=0;exitDy=0;entryX=0.5;entryY=0;entryDx=0;entryDy=0;" parent="1" source="beGZYDFZV5x5-5D6ffd--54" target="beGZYDFZV5x5-5D6ffd--98" edge="1">
          <mxGeometry width="50" height="50" relative="1" as="geometry">
            <mxPoint x="370" y="250" as="sourcePoint" />
            <mxPoint x="420" y="200" as="targetPoint" />
          </mxGeometry>
        </mxCell>
        <mxCell id="beGZYDFZV5x5-5D6ffd--101" value="非法" style="edgeLabel;html=1;align=center;verticalAlign=middle;resizable=0;points=[];" parent="beGZYDFZV5x5-5D6ffd--100" vertex="1" connectable="0">
          <mxGeometry x="-0.0839" relative="1" as="geometry">
            <mxPoint as="offset" />
          </mxGeometry>
        </mxCell>
        <mxCell id="beGZYDFZV5x5-5D6ffd--102" value="" style="endArrow=classic;html=1;rounded=0;exitX=0.379;exitY=0.357;exitDx=0;exitDy=0;exitPerimeter=0;entryX=0.5;entryY=1;entryDx=0;entryDy=0;" parent="1" source="beGZYDFZV5x5-5D6ffd--97" target="beGZYDFZV5x5-5D6ffd--98" edge="1">
          <mxGeometry width="50" height="50" relative="1" as="geometry">
            <mxPoint x="460" y="260" as="sourcePoint" />
            <mxPoint x="510" y="210" as="targetPoint" />
          </mxGeometry>
        </mxCell>
        <mxCell id="beGZYDFZV5x5-5D6ffd--103" value="" style="shape=waypoint;sketch=0;fillStyle=solid;size=6;pointerEvents=1;points=[];fillColor=none;resizable=0;rotatable=0;perimeter=centerPerimeter;snapToPoint=1;" parent="1" vertex="1">
          <mxGeometry x="470" y="260" width="20" height="20" as="geometry" />
        </mxCell>
        <mxCell id="beGZYDFZV5x5-5D6ffd--106" value="" style="endArrow=classic;html=1;rounded=0;exitX=0.321;exitY=0.614;exitDx=0;exitDy=0;exitPerimeter=0;" parent="1" source="beGZYDFZV5x5-5D6ffd--97" target="beGZYDFZV5x5-5D6ffd--71" edge="1">
          <mxGeometry width="50" height="50" relative="1" as="geometry">
            <mxPoint x="410" y="280" as="sourcePoint" />
            <mxPoint x="422" y="250" as="targetPoint" />
          </mxGeometry>
        </mxCell>
        <mxCell id="beGZYDFZV5x5-5D6ffd--107" value="" style="shape=crossbar;whiteSpace=wrap;html=1;rounded=1;" parent="1" vertex="1">
          <mxGeometry x="320" y="391" width="160" height="20" as="geometry" />
        </mxCell>
        <mxCell id="beGZYDFZV5x5-5D6ffd--108" value="&lt;font style=&quot;font-size: 7px;&quot;&gt;R:外插+回滚&lt;/font&gt;" style="rounded=1;whiteSpace=wrap;html=1;" parent="1" vertex="1">
          <mxGeometry x="372" y="411" width="60" height="30" as="geometry" />
        </mxCell>
        <mxCell id="beGZYDFZV5x5-5D6ffd--109" value="" style="endArrow=classic;html=1;rounded=0;entryX=0.321;entryY=0.507;entryDx=0;entryDy=0;entryPerimeter=0;" parent="1" source="beGZYDFZV5x5-5D6ffd--97" target="beGZYDFZV5x5-5D6ffd--68" edge="1">
          <mxGeometry width="50" height="50" relative="1" as="geometry">
            <mxPoint x="470" y="240" as="sourcePoint" />
            <mxPoint x="520" y="190" as="targetPoint" />
          </mxGeometry>
        </mxCell>
        <mxCell id="beGZYDFZV5x5-5D6ffd--110" value="&lt;span style=&quot;font-size: 7px;&quot;&gt;M:插值拉回+传送+重新模拟&lt;/span&gt;" style="rounded=1;whiteSpace=wrap;html=1;" parent="1" vertex="1">
          <mxGeometry x="440" y="110" width="90" height="30" as="geometry" />
        </mxCell>
        <mxCell id="Dgg-TFfOb2gWR0Gjc4yS-13" value="" style="edgeStyle=orthogonalEdgeStyle;rounded=0;orthogonalLoop=1;jettySize=auto;html=1;movable=1;resizable=1;rotatable=1;deletable=1;editable=1;locked=0;connectable=1;" parent="1" source="Dgg-TFfOb2gWR0Gjc4yS-10" target="Dgg-TFfOb2gWR0Gjc4yS-12" edge="1">
          <mxGeometry relative="1" as="geometry" />
        </mxCell>
        <mxCell id="Dgg-TFfOb2gWR0Gjc4yS-10" value="&lt;font style=&quot;font-size: 7px;&quot;&gt;主线程&lt;/font&gt;" style="rounded=0;whiteSpace=wrap;html=1;movable=1;resizable=1;rotatable=1;deletable=1;editable=1;locked=0;connectable=1;" parent="1" vertex="1">
          <mxGeometry x="20" y="1500.0100000000002" width="50" height="40" as="geometry" />
        </mxCell>
        <mxCell id="Dgg-TFfOb2gWR0Gjc4yS-11" value="&lt;font style=&quot;font-size: 7px;&quot;&gt;物理线程&lt;/font&gt;" style="rounded=0;whiteSpace=wrap;html=1;movable=1;resizable=1;rotatable=1;deletable=1;editable=1;locked=0;connectable=1;" parent="1" vertex="1">
          <mxGeometry x="20" y="1620.0100000000002" width="50" height="40" as="geometry" />
        </mxCell>
        <mxCell id="Dgg-TFfOb2gWR0Gjc4yS-42" style="edgeStyle=orthogonalEdgeStyle;orthogonalLoop=1;jettySize=auto;html=1;rounded=0;entryX=0.5;entryY=0;entryDx=0;entryDy=0;movable=1;resizable=1;rotatable=1;deletable=1;editable=1;locked=0;connectable=1;" parent="1" target="Dgg-TFfOb2gWR0Gjc4yS-15" edge="1">
          <mxGeometry relative="1" as="geometry">
            <mxPoint x="860" y="1460.0100000000002" as="targetPoint" />
            <mxPoint x="175" y="1510.0100000000002" as="sourcePoint" />
            <Array as="points">
              <mxPoint x="175" y="1460.0100000000002" />
              <mxPoint x="865" y="1460.0100000000002" />
            </Array>
          </mxGeometry>
        </mxCell>
        <mxCell id="Dgg-TFfOb2gWR0Gjc4yS-45" value="&lt;font style=&quot;font-size: 7px;&quot;&gt;是&lt;/font&gt;" style="edgeLabel;html=1;align=center;verticalAlign=middle;resizable=1;points=[];movable=1;rotatable=1;deletable=1;editable=1;locked=0;connectable=1;" parent="Dgg-TFfOb2gWR0Gjc4yS-42" vertex="1" connectable="0">
          <mxGeometry x="-0.0907" y="-1" relative="1" as="geometry">
            <mxPoint as="offset" />
          </mxGeometry>
        </mxCell>
        <mxCell id="Dgg-TFfOb2gWR0Gjc4yS-12" value="&lt;font style=&quot;font-size: 7px;&quot;&gt;物理线程是否激活&lt;/font&gt;" style="rhombus;whiteSpace=wrap;html=1;rounded=0;movable=1;resizable=1;rotatable=1;deletable=1;editable=1;locked=0;connectable=1;" parent="1" vertex="1">
          <mxGeometry x="130" y="1500.0100000000002" width="90" height="40" as="geometry" />
        </mxCell>
        <mxCell id="Dgg-TFfOb2gWR0Gjc4yS-15" value="&lt;font style=&quot;font-size: 7px;&quot;&gt;RailsTickC&lt;/font&gt;" style="rounded=0;whiteSpace=wrap;html=1;movable=1;resizable=1;rotatable=1;deletable=1;editable=1;locked=0;connectable=1;" parent="1" vertex="1">
          <mxGeometry x="840" y="1500.0100000000002" width="50" height="40" as="geometry" />
        </mxCell>
        <mxCell id="Dgg-TFfOb2gWR0Gjc4yS-16" value="" style="endArrow=classic;html=1;rounded=0;exitX=1;exitY=0.5;exitDx=0;exitDy=0;entryX=0;entryY=0.5;entryDx=0;entryDy=0;movable=1;resizable=1;rotatable=1;deletable=1;editable=1;locked=0;connectable=1;" parent="1" source="Dgg-TFfOb2gWR0Gjc4yS-12" target="Dgg-TFfOb2gWR0Gjc4yS-20" edge="1">
          <mxGeometry width="50" height="50" relative="1" as="geometry">
            <mxPoint x="240" y="1530.0100000000002" as="sourcePoint" />
            <mxPoint x="290" y="1480.0100000000002" as="targetPoint" />
          </mxGeometry>
        </mxCell>
        <mxCell id="Dgg-TFfOb2gWR0Gjc4yS-17" value="&lt;font style=&quot;font-size: 7px;&quot;&gt;否&lt;/font&gt;" style="edgeLabel;html=1;align=center;verticalAlign=middle;resizable=1;points=[];movable=1;rotatable=1;deletable=1;editable=1;locked=0;connectable=1;" parent="Dgg-TFfOb2gWR0Gjc4yS-16" vertex="1" connectable="0">
          <mxGeometry x="-0.1" y="1" relative="1" as="geometry">
            <mxPoint as="offset" />
          </mxGeometry>
        </mxCell>
        <mxCell id="Dgg-TFfOb2gWR0Gjc4yS-26" value="" style="edgeStyle=orthogonalEdgeStyle;rounded=0;orthogonalLoop=1;jettySize=auto;html=1;movable=1;resizable=1;rotatable=1;deletable=1;editable=1;locked=0;connectable=1;" parent="1" source="Dgg-TFfOb2gWR0Gjc4yS-20" target="Dgg-TFfOb2gWR0Gjc4yS-25" edge="1">
          <mxGeometry relative="1" as="geometry" />
        </mxCell>
        <mxCell id="Dgg-TFfOb2gWR0Gjc4yS-20" value="&lt;font style=&quot;font-size: 7px;&quot;&gt;RailsTickA&lt;/font&gt;" style="rounded=0;whiteSpace=wrap;html=1;movable=1;resizable=1;rotatable=1;deletable=1;editable=1;locked=0;connectable=1;" parent="1" vertex="1">
          <mxGeometry x="280" y="1500.0100000000002" width="50" height="40" as="geometry" />
        </mxCell>
        <mxCell id="Dgg-TFfOb2gWR0Gjc4yS-21" value="&lt;font style=&quot;font-size: 7px;&quot;&gt;RailsTickAdvance&lt;/font&gt;" style="rounded=0;whiteSpace=wrap;html=1;movable=1;resizable=1;rotatable=1;deletable=1;editable=1;locked=0;connectable=1;" parent="1" vertex="1">
          <mxGeometry x="380" y="1620.0100000000002" width="80" height="40" as="geometry" />
        </mxCell>
        <mxCell id="Dgg-TFfOb2gWR0Gjc4yS-22" value="" style="endArrow=classic;html=1;rounded=0;exitX=1;exitY=0.5;exitDx=0;exitDy=0;entryX=0;entryY=0.5;entryDx=0;entryDy=0;movable=1;resizable=1;rotatable=1;deletable=1;editable=1;locked=0;connectable=1;" parent="1" source="Dgg-TFfOb2gWR0Gjc4yS-11" target="Dgg-TFfOb2gWR0Gjc4yS-21" edge="1">
          <mxGeometry width="50" height="50" relative="1" as="geometry">
            <mxPoint x="100" y="1730.01" as="sourcePoint" />
            <mxPoint x="150" y="1680.01" as="targetPoint" />
          </mxGeometry>
        </mxCell>
        <mxCell id="Dgg-TFfOb2gWR0Gjc4yS-27" value="" style="edgeStyle=orthogonalEdgeStyle;rounded=0;orthogonalLoop=1;jettySize=auto;html=1;movable=1;resizable=1;rotatable=1;deletable=1;editable=1;locked=0;connectable=1;" parent="1" source="Dgg-TFfOb2gWR0Gjc4yS-25" target="Dgg-TFfOb2gWR0Gjc4yS-21" edge="1">
          <mxGeometry relative="1" as="geometry" />
        </mxCell>
        <mxCell id="Dgg-TFfOb2gWR0Gjc4yS-28" value="&lt;font style=&quot;font-size: 7px;&quot;&gt;启动物理线程&lt;/font&gt;" style="edgeLabel;html=1;align=center;verticalAlign=middle;resizable=1;points=[];movable=1;rotatable=1;deletable=1;editable=1;locked=0;connectable=1;" parent="Dgg-TFfOb2gWR0Gjc4yS-27" vertex="1" connectable="0">
          <mxGeometry x="-0.0789" relative="1" as="geometry">
            <mxPoint as="offset" />
          </mxGeometry>
        </mxCell>
        <mxCell id="Dgg-TFfOb2gWR0Gjc4yS-32" value="" style="edgeStyle=orthogonalEdgeStyle;rounded=0;orthogonalLoop=1;jettySize=auto;html=1;movable=1;resizable=1;rotatable=1;deletable=1;editable=1;locked=0;connectable=1;" parent="1" source="Dgg-TFfOb2gWR0Gjc4yS-25" target="Dgg-TFfOb2gWR0Gjc4yS-31" edge="1">
          <mxGeometry relative="1" as="geometry" />
        </mxCell>
        <mxCell id="Dgg-TFfOb2gWR0Gjc4yS-25" value="&lt;font style=&quot;font-size: 7px;&quot;&gt;RailsTickPreAdvance&lt;/font&gt;" style="rounded=0;whiteSpace=wrap;html=1;movable=1;resizable=1;rotatable=1;deletable=1;editable=1;locked=0;connectable=1;" parent="1" vertex="1">
          <mxGeometry x="380" y="1500.0100000000002" width="80" height="40" as="geometry" />
        </mxCell>
        <mxCell id="Dgg-TFfOb2gWR0Gjc4yS-35" value="" style="edgeStyle=orthogonalEdgeStyle;rounded=0;orthogonalLoop=1;jettySize=auto;html=1;movable=1;resizable=1;rotatable=1;deletable=1;editable=1;locked=0;connectable=1;" parent="1" source="Dgg-TFfOb2gWR0Gjc4yS-30" target="Dgg-TFfOb2gWR0Gjc4yS-15" edge="1">
          <mxGeometry relative="1" as="geometry" />
        </mxCell>
        <mxCell id="Dgg-TFfOb2gWR0Gjc4yS-30" value="&lt;font style=&quot;font-size: 7px;&quot;&gt;RailsTickPostAdvance&lt;/font&gt;" style="rounded=0;whiteSpace=wrap;html=1;movable=1;resizable=1;rotatable=1;deletable=1;editable=1;locked=0;connectable=1;" parent="1" vertex="1">
          <mxGeometry x="690" y="1500.0100000000002" width="80" height="40" as="geometry" />
        </mxCell>
        <mxCell id="Dgg-TFfOb2gWR0Gjc4yS-33" value="" style="edgeStyle=orthogonalEdgeStyle;rounded=0;orthogonalLoop=1;jettySize=auto;html=1;movable=1;resizable=1;rotatable=1;deletable=1;editable=1;locked=0;connectable=1;" parent="1" source="Dgg-TFfOb2gWR0Gjc4yS-31" target="Dgg-TFfOb2gWR0Gjc4yS-30" edge="1">
          <mxGeometry relative="1" as="geometry" />
        </mxCell>
        <mxCell id="Dgg-TFfOb2gWR0Gjc4yS-34" value="&lt;font style=&quot;font-size: 7px;&quot;&gt;是&lt;/font&gt;" style="edgeLabel;html=1;align=center;verticalAlign=middle;resizable=1;points=[];movable=1;rotatable=1;deletable=1;editable=1;locked=0;connectable=1;" parent="Dgg-TFfOb2gWR0Gjc4yS-33" vertex="1" connectable="0">
          <mxGeometry x="-0.2767" y="-1" relative="1" as="geometry">
            <mxPoint as="offset" />
          </mxGeometry>
        </mxCell>
        <mxCell id="Dgg-TFfOb2gWR0Gjc4yS-38" style="edgeStyle=orthogonalEdgeStyle;rounded=0;orthogonalLoop=1;jettySize=auto;html=1;exitX=0.5;exitY=1;exitDx=0;exitDy=0;entryX=0.5;entryY=1;entryDx=0;entryDy=0;movable=1;resizable=1;rotatable=1;deletable=1;editable=1;locked=0;connectable=1;" parent="1" source="Dgg-TFfOb2gWR0Gjc4yS-31" target="Dgg-TFfOb2gWR0Gjc4yS-15" edge="1">
          <mxGeometry relative="1" as="geometry" />
        </mxCell>
        <mxCell id="Dgg-TFfOb2gWR0Gjc4yS-39" value="&lt;font style=&quot;font-size: 7px;&quot;&gt;否&lt;/font&gt;" style="edgeLabel;html=1;align=center;verticalAlign=middle;resizable=1;points=[];movable=1;rotatable=1;deletable=1;editable=1;locked=0;connectable=1;" parent="Dgg-TFfOb2gWR0Gjc4yS-38" vertex="1" connectable="0">
          <mxGeometry x="0.0069" y="-1" relative="1" as="geometry">
            <mxPoint as="offset" />
          </mxGeometry>
        </mxCell>
        <mxCell id="Dgg-TFfOb2gWR0Gjc4yS-31" value="&lt;font style=&quot;font-size: 7px;&quot;&gt;物理线程是停止&lt;/font&gt;" style="rhombus;whiteSpace=wrap;html=1;rounded=0;movable=1;resizable=1;rotatable=1;deletable=1;editable=1;locked=0;connectable=1;" parent="1" vertex="1">
          <mxGeometry x="520" y="1500.0100000000002" width="90" height="40" as="geometry" />
        </mxCell>
        <mxCell id="pXDYT4l3pWk60CeOceqQ-1" value="&lt;font style=&quot;font-size: 7px;&quot;&gt;小于服务器帧号&lt;/font&gt;" style="ellipse;whiteSpace=wrap;html=1;aspect=fixed;fillColor=#d5e8d4;strokeColor=#82b366;movable=0;resizable=0;rotatable=0;deletable=0;editable=0;locked=1;connectable=0;" parent="1" vertex="1">
          <mxGeometry x="-681" y="947" width="80" height="80" as="geometry" />
        </mxCell>
        <mxCell id="pXDYT4l3pWk60CeOceqQ-2" value="" style="ellipse;whiteSpace=wrap;html=1;aspect=fixed;shadow=0;fillColor=none;movable=0;resizable=0;rotatable=0;deletable=0;editable=0;locked=1;connectable=0;" parent="1" vertex="1">
          <mxGeometry x="-711" y="897" width="140" height="140" as="geometry" />
        </mxCell>
        <mxCell id="pXDYT4l3pWk60CeOceqQ-3" value="小于20M" style="text;html=1;strokeColor=none;fillColor=none;align=center;verticalAlign=middle;whiteSpace=wrap;rounded=0;movable=0;resizable=0;rotatable=0;deletable=0;editable=0;locked=1;connectable=0;" parent="1" vertex="1">
          <mxGeometry x="-671" y="917" width="60" height="30" as="geometry" />
        </mxCell>
        <mxCell id="pXDYT4l3pWk60CeOceqQ-8" value="" style="edgeStyle=orthogonalEdgeStyle;rounded=0;orthogonalLoop=1;jettySize=auto;html=1;movable=1;resizable=1;rotatable=1;deletable=1;editable=1;locked=0;connectable=1;" parent="1" source="pXDYT4l3pWk60CeOceqQ-4" target="pXDYT4l3pWk60CeOceqQ-7" edge="1">
          <mxGeometry relative="1" as="geometry" />
        </mxCell>
        <mxCell id="pXDYT4l3pWk60CeOceqQ-4" value="&lt;font style=&quot;font-size: 7px;&quot;&gt;物理模拟阶段&lt;/font&gt;" style="rounded=0;whiteSpace=wrap;html=1;movable=1;resizable=1;rotatable=1;deletable=1;editable=1;locked=0;connectable=1;" parent="1" vertex="1">
          <mxGeometry x="20" y="1740" width="50" height="40" as="geometry" />
        </mxCell>
        <mxCell id="pXDYT4l3pWk60CeOceqQ-10" value="" style="edgeStyle=orthogonalEdgeStyle;rounded=0;orthogonalLoop=1;jettySize=auto;html=1;movable=1;resizable=1;rotatable=1;deletable=1;editable=1;locked=0;connectable=1;" parent="1" source="pXDYT4l3pWk60CeOceqQ-7" target="pXDYT4l3pWk60CeOceqQ-9" edge="1">
          <mxGeometry relative="1" as="geometry" />
        </mxCell>
        <mxCell id="pXDYT4l3pWk60CeOceqQ-7" value="&lt;font style=&quot;font-size: 7px;&quot;&gt;求参与模拟的集合&lt;/font&gt;" style="rounded=0;whiteSpace=wrap;html=1;movable=1;resizable=1;rotatable=1;deletable=1;editable=1;locked=0;connectable=1;" parent="1" vertex="1">
          <mxGeometry x="120" y="1740" width="60" height="40" as="geometry" />
        </mxCell>
        <mxCell id="pXDYT4l3pWk60CeOceqQ-14" value="" style="edgeStyle=orthogonalEdgeStyle;rounded=0;orthogonalLoop=1;jettySize=auto;html=1;movable=1;resizable=1;rotatable=1;deletable=1;editable=1;locked=0;connectable=1;" parent="1" source="pXDYT4l3pWk60CeOceqQ-9" edge="1">
          <mxGeometry relative="1" as="geometry">
            <mxPoint x="320" y="1760" as="targetPoint" />
          </mxGeometry>
        </mxCell>
        <mxCell id="pXDYT4l3pWk60CeOceqQ-9" value="&lt;font style=&quot;font-size: 7px;&quot;&gt;求得回溯的起始帧&lt;/font&gt;" style="rounded=0;whiteSpace=wrap;html=1;movable=1;resizable=1;rotatable=1;deletable=1;editable=1;locked=0;connectable=1;" parent="1" vertex="1">
          <mxGeometry x="210" y="1740" width="60" height="40" as="geometry" />
        </mxCell>
        <mxCell id="pXDYT4l3pWk60CeOceqQ-17" value="" style="edgeStyle=orthogonalEdgeStyle;rounded=0;orthogonalLoop=1;jettySize=auto;html=1;movable=1;resizable=1;rotatable=1;deletable=1;editable=1;locked=0;connectable=1;" parent="1" source="pXDYT4l3pWk60CeOceqQ-15" target="pXDYT4l3pWk60CeOceqQ-16" edge="1">
          <mxGeometry relative="1" as="geometry" />
        </mxCell>
        <mxCell id="pXDYT4l3pWk60CeOceqQ-15" value="&lt;font style=&quot;font-size: 7px;&quot;&gt;开始回溯&lt;/font&gt;" style="rounded=0;whiteSpace=wrap;html=1;movable=1;resizable=1;rotatable=1;deletable=1;editable=1;locked=0;connectable=1;" parent="1" vertex="1">
          <mxGeometry x="320" y="1740" width="60" height="40" as="geometry" />
        </mxCell>
        <mxCell id="pXDYT4l3pWk60CeOceqQ-19" value="" style="edgeStyle=orthogonalEdgeStyle;rounded=0;orthogonalLoop=1;jettySize=auto;html=1;movable=1;resizable=1;rotatable=1;deletable=1;editable=1;locked=0;connectable=1;" parent="1" source="pXDYT4l3pWk60CeOceqQ-16" target="pXDYT4l3pWk60CeOceqQ-18" edge="1">
          <mxGeometry relative="1" as="geometry" />
        </mxCell>
        <mxCell id="pXDYT4l3pWk60CeOceqQ-20" value="&lt;font style=&quot;font-size: 7px;&quot;&gt;是&lt;/font&gt;" style="edgeLabel;html=1;align=center;verticalAlign=middle;resizable=1;points=[];movable=1;rotatable=1;deletable=1;editable=1;locked=0;connectable=1;" parent="pXDYT4l3pWk60CeOceqQ-19" vertex="1" connectable="0">
          <mxGeometry x="-0.0138" y="-1" relative="1" as="geometry">
            <mxPoint as="offset" />
          </mxGeometry>
        </mxCell>
        <mxCell id="pXDYT4l3pWk60CeOceqQ-24" value="" style="edgeStyle=orthogonalEdgeStyle;rounded=0;orthogonalLoop=1;jettySize=auto;html=1;movable=1;resizable=1;rotatable=1;deletable=1;editable=1;locked=0;connectable=1;" parent="1" source="pXDYT4l3pWk60CeOceqQ-16" target="pXDYT4l3pWk60CeOceqQ-23" edge="1">
          <mxGeometry relative="1" as="geometry" />
        </mxCell>
        <mxCell id="pXDYT4l3pWk60CeOceqQ-26" value="&lt;font style=&quot;font-size: 7px;&quot;&gt;否&lt;/font&gt;" style="edgeLabel;html=1;align=center;verticalAlign=middle;resizable=1;points=[];movable=1;rotatable=1;deletable=1;editable=1;locked=0;connectable=1;" parent="pXDYT4l3pWk60CeOceqQ-24" vertex="1" connectable="0">
          <mxGeometry x="-0.2208" relative="1" as="geometry">
            <mxPoint as="offset" />
          </mxGeometry>
        </mxCell>
        <mxCell id="pXDYT4l3pWk60CeOceqQ-16" value="&lt;font style=&quot;font-size: 7px;&quot;&gt;是否大于起始帧&lt;/font&gt;" style="rhombus;whiteSpace=wrap;html=1;rounded=0;movable=1;resizable=1;rotatable=1;deletable=1;editable=1;locked=0;connectable=1;" parent="1" vertex="1">
          <mxGeometry x="450" y="1735" width="80" height="50" as="geometry" />
        </mxCell>
        <mxCell id="pXDYT4l3pWk60CeOceqQ-18" value="&lt;font style=&quot;font-size: 7px;&quot;&gt;设置为Kinematic&lt;br&gt;并且跳过处理&lt;br&gt;&lt;/font&gt;" style="whiteSpace=wrap;html=1;rounded=0;movable=1;resizable=1;rotatable=1;deletable=1;editable=1;locked=0;connectable=1;" parent="1" vertex="1">
          <mxGeometry x="440" y="1840" width="100" height="40" as="geometry" />
        </mxCell>
        <mxCell id="pXDYT4l3pWk60CeOceqQ-28" value="" style="edgeStyle=orthogonalEdgeStyle;rounded=0;orthogonalLoop=1;jettySize=auto;html=1;movable=1;resizable=1;rotatable=1;deletable=1;editable=1;locked=0;connectable=1;" parent="1" source="pXDYT4l3pWk60CeOceqQ-23" target="pXDYT4l3pWk60CeOceqQ-27" edge="1">
          <mxGeometry relative="1" as="geometry" />
        </mxCell>
        <mxCell id="pXDYT4l3pWk60CeOceqQ-23" value="&lt;font style=&quot;font-size: 7px;&quot;&gt;物理场景中&lt;br&gt;回滚到起始位置&lt;br&gt;&lt;/font&gt;" style="whiteSpace=wrap;html=1;rounded=0;movable=1;resizable=1;rotatable=1;deletable=1;editable=1;locked=0;connectable=1;" parent="1" vertex="1">
          <mxGeometry x="660" y="1740" width="70" height="40" as="geometry" />
        </mxCell>
        <mxCell id="pXDYT4l3pWk60CeOceqQ-31" value="" style="edgeStyle=orthogonalEdgeStyle;rounded=0;orthogonalLoop=1;jettySize=auto;html=1;movable=1;resizable=1;rotatable=1;deletable=1;editable=1;locked=0;connectable=1;" parent="1" source="pXDYT4l3pWk60CeOceqQ-27" target="pXDYT4l3pWk60CeOceqQ-30" edge="1">
          <mxGeometry relative="1" as="geometry" />
        </mxCell>
        <mxCell id="pXDYT4l3pWk60CeOceqQ-27" value="&lt;div style=&quot;font-size: 7px;&quot;&gt;&lt;span style=&quot;background-color: initial;&quot;&gt;&lt;font style=&quot;font-size: 7px;&quot;&gt;物理计算&lt;/font&gt;&lt;/span&gt;&lt;/div&gt;&lt;font style=&quot;font-size: 7px;&quot;&gt;&lt;div style=&quot;&quot;&gt;&lt;div style=&quot;text-align: left;&quot;&gt;&lt;span style=&quot;background-color: initial;&quot;&gt;UpdateActorSimState_ByPhysxPreSolver&lt;/span&gt;&lt;/div&gt;&lt;span style=&quot;background-color: initial;&quot;&gt;&lt;div style=&quot;text-align: left;&quot;&gt;&lt;span style=&quot;background-color: initial;&quot;&gt;UpdateActorSimState_ByPhysxIntegrate&lt;/span&gt;&lt;/div&gt;&lt;/span&gt;&lt;/div&gt;&lt;/font&gt;" style="whiteSpace=wrap;html=1;rounded=0;align=center;movable=1;resizable=1;rotatable=1;deletable=1;editable=1;locked=0;connectable=1;" parent="1" vertex="1">
          <mxGeometry x="620" y="1830" width="150" height="40" as="geometry" />
        </mxCell>
        <mxCell id="pXDYT4l3pWk60CeOceqQ-34" value="" style="edgeStyle=orthogonalEdgeStyle;rounded=0;orthogonalLoop=1;jettySize=auto;html=1;movable=1;resizable=1;rotatable=1;deletable=1;editable=1;locked=0;connectable=1;" parent="1" source="pXDYT4l3pWk60CeOceqQ-29" target="pXDYT4l3pWk60CeOceqQ-33" edge="1">
          <mxGeometry relative="1" as="geometry" />
        </mxCell>
        <mxCell id="pXDYT4l3pWk60CeOceqQ-29" value="&lt;font style=&quot;font-size: 7px;&quot;&gt;碰撞穿插处理&lt;br&gt;UpdateActorSimState_ByPhysxPostSolver&lt;br&gt;&lt;/font&gt;" style="whiteSpace=wrap;html=1;rounded=0;movable=1;resizable=1;rotatable=1;deletable=1;editable=1;locked=0;connectable=1;" parent="1" vertex="1">
          <mxGeometry x="620" y="1960" width="150" height="40" as="geometry" />
        </mxCell>
        <mxCell id="pXDYT4l3pWk60CeOceqQ-32" value="" style="edgeStyle=orthogonalEdgeStyle;rounded=0;orthogonalLoop=1;jettySize=auto;html=1;movable=1;resizable=1;rotatable=1;deletable=1;editable=1;locked=0;connectable=1;" parent="1" source="pXDYT4l3pWk60CeOceqQ-30" target="pXDYT4l3pWk60CeOceqQ-29" edge="1">
          <mxGeometry relative="1" as="geometry" />
        </mxCell>
        <mxCell id="pXDYT4l3pWk60CeOceqQ-30" value="&lt;font style=&quot;font-size: 7px;&quot;&gt;物理引擎&lt;br&gt;simulate&lt;/font&gt;" style="whiteSpace=wrap;html=1;rounded=0;fillColor=#FF6666;movable=1;resizable=1;rotatable=1;deletable=1;editable=1;locked=0;connectable=1;" parent="1" vertex="1">
          <mxGeometry x="660" y="1890" width="70" height="40" as="geometry" />
        </mxCell>
        <mxCell id="pXDYT4l3pWk60CeOceqQ-37" style="edgeStyle=orthogonalEdgeStyle;rounded=0;orthogonalLoop=1;jettySize=auto;html=1;exitX=0;exitY=0.5;exitDx=0;exitDy=0;entryX=0.5;entryY=1;entryDx=0;entryDy=0;movable=1;resizable=1;rotatable=1;deletable=1;editable=1;locked=0;connectable=1;" parent="1" source="pXDYT4l3pWk60CeOceqQ-33" target="pXDYT4l3pWk60CeOceqQ-15" edge="1">
          <mxGeometry relative="1" as="geometry" />
        </mxCell>
        <mxCell id="pXDYT4l3pWk60CeOceqQ-38" value="每次最大回溯100个帧" style="edgeLabel;html=1;align=center;verticalAlign=middle;resizable=1;points=[];movable=1;rotatable=1;deletable=1;editable=1;locked=0;connectable=1;" parent="pXDYT4l3pWk60CeOceqQ-37" vertex="1" connectable="0">
          <mxGeometry x="0.2028" y="1" relative="1" as="geometry">
            <mxPoint as="offset" />
          </mxGeometry>
        </mxCell>
        <mxCell id="pXDYT4l3pWk60CeOceqQ-33" value="&lt;font style=&quot;font-size: 7px;&quot;&gt;当前回溯结束&lt;br&gt;&lt;/font&gt;" style="whiteSpace=wrap;html=1;rounded=0;movable=1;resizable=1;rotatable=1;deletable=1;editable=1;locked=0;connectable=1;" parent="1" vertex="1">
          <mxGeometry x="460" y="1960" width="70" height="40" as="geometry" />
        </mxCell>
        <mxCell id="6_FbaeLzQHJs3EB26zUK-1" value="" style="endArrow=classic;html=1;rounded=0;movable=1;resizable=1;rotatable=1;deletable=1;editable=1;locked=0;connectable=1;" parent="1" edge="1">
          <mxGeometry relative="1" as="geometry">
            <mxPoint x="40" y="571" as="sourcePoint" />
            <mxPoint x="640" y="571" as="targetPoint" />
          </mxGeometry>
        </mxCell>
        <mxCell id="6_FbaeLzQHJs3EB26zUK-2" value="Client-Master" style="edgeLabel;resizable=1;html=1;align=left;verticalAlign=bottom;movable=1;rotatable=1;deletable=1;editable=1;locked=0;connectable=1;" parent="6_FbaeLzQHJs3EB26zUK-1" connectable="0" vertex="1">
          <mxGeometry x="-1" relative="1" as="geometry">
            <mxPoint x="-2" as="offset" />
          </mxGeometry>
        </mxCell>
        <mxCell id="6_FbaeLzQHJs3EB26zUK-3" value="" style="shape=waypoint;sketch=0;fillStyle=solid;size=6;pointerEvents=1;points=[];fillColor=none;resizable=0;rotatable=0;perimeter=centerPerimeter;snapToPoint=1;" parent="1" vertex="1">
          <mxGeometry x="149" y="561" width="20" height="20" as="geometry" />
        </mxCell>
        <mxCell id="6_FbaeLzQHJs3EB26zUK-4" value="" style="shape=waypoint;sketch=0;fillStyle=solid;size=6;pointerEvents=1;points=[];fillColor=none;resizable=0;rotatable=0;perimeter=centerPerimeter;snapToPoint=1;" parent="1" vertex="1">
          <mxGeometry x="232" y="561" width="20" height="20" as="geometry" />
        </mxCell>
        <mxCell id="6_FbaeLzQHJs3EB26zUK-5" value="" style="shape=waypoint;sketch=0;fillStyle=solid;size=6;pointerEvents=1;points=[];fillColor=none;resizable=0;rotatable=0;perimeter=centerPerimeter;snapToPoint=1;" parent="1" vertex="1">
          <mxGeometry x="310" y="561" width="20" height="20" as="geometry" />
        </mxCell>
        <mxCell id="6_FbaeLzQHJs3EB26zUK-6" value="" style="shape=waypoint;sketch=0;fillStyle=solid;size=6;pointerEvents=1;points=[];fillColor=none;resizable=0;rotatable=0;perimeter=centerPerimeter;snapToPoint=1;" parent="1" vertex="1">
          <mxGeometry x="390" y="561" width="20" height="20" as="geometry" />
        </mxCell>
        <mxCell id="6_FbaeLzQHJs3EB26zUK-7" value="" style="shape=waypoint;sketch=0;fillStyle=solid;size=6;pointerEvents=1;points=[];fillColor=none;resizable=0;rotatable=0;perimeter=centerPerimeter;snapToPoint=1;" parent="1" vertex="1">
          <mxGeometry x="470" y="560" width="20" height="20" as="geometry" />
        </mxCell>
        <mxCell id="6_FbaeLzQHJs3EB26zUK-8" value="" style="endArrow=classic;html=1;rounded=0;movable=1;resizable=1;rotatable=1;deletable=1;editable=1;locked=0;connectable=1;" parent="1" edge="1">
          <mxGeometry relative="1" as="geometry">
            <mxPoint x="40" y="721" as="sourcePoint" />
            <mxPoint x="640" y="721" as="targetPoint" />
          </mxGeometry>
        </mxCell>
        <mxCell id="6_FbaeLzQHJs3EB26zUK-9" value="Client-Master" style="edgeLabel;resizable=1;html=1;align=left;verticalAlign=bottom;movable=1;rotatable=1;deletable=1;editable=1;locked=0;connectable=1;" parent="6_FbaeLzQHJs3EB26zUK-8" connectable="0" vertex="1">
          <mxGeometry x="-1" relative="1" as="geometry">
            <mxPoint x="-2" as="offset" />
          </mxGeometry>
        </mxCell>
        <mxCell id="6_FbaeLzQHJs3EB26zUK-10" value="" style="shape=waypoint;sketch=0;fillStyle=solid;size=6;pointerEvents=1;points=[];fillColor=none;resizable=0;rotatable=0;perimeter=centerPerimeter;snapToPoint=1;" parent="1" vertex="1">
          <mxGeometry x="149" y="711" width="20" height="20" as="geometry" />
        </mxCell>
        <mxCell id="6_FbaeLzQHJs3EB26zUK-11" value="" style="shape=waypoint;sketch=0;fillStyle=solid;size=6;pointerEvents=1;points=[];fillColor=none;resizable=0;rotatable=0;perimeter=centerPerimeter;snapToPoint=1;" parent="1" vertex="1">
          <mxGeometry x="232" y="711" width="20" height="20" as="geometry" />
        </mxCell>
        <mxCell id="6_FbaeLzQHJs3EB26zUK-12" value="" style="shape=waypoint;sketch=0;fillStyle=solid;size=6;pointerEvents=1;points=[];fillColor=none;resizable=0;rotatable=0;perimeter=centerPerimeter;snapToPoint=1;" parent="1" vertex="1">
          <mxGeometry x="310" y="711" width="20" height="20" as="geometry" />
        </mxCell>
        <mxCell id="6_FbaeLzQHJs3EB26zUK-13" value="" style="shape=waypoint;sketch=0;fillStyle=solid;size=6;pointerEvents=1;points=[];fillColor=none;resizable=0;rotatable=0;perimeter=centerPerimeter;snapToPoint=1;" parent="1" vertex="1">
          <mxGeometry x="390" y="711" width="20" height="20" as="geometry" />
        </mxCell>
        <mxCell id="6_FbaeLzQHJs3EB26zUK-14" value="" style="shape=waypoint;sketch=0;fillStyle=solid;size=6;pointerEvents=1;points=[];fillColor=none;resizable=0;rotatable=0;perimeter=centerPerimeter;snapToPoint=1;" parent="1" vertex="1">
          <mxGeometry x="470" y="710" width="20" height="20" as="geometry" />
        </mxCell>
        <mxCell id="6_FbaeLzQHJs3EB26zUK-15" value="" style="endArrow=classic;html=1;rounded=0;movable=1;resizable=1;rotatable=1;deletable=1;editable=1;locked=0;connectable=1;" parent="1" edge="1">
          <mxGeometry relative="1" as="geometry">
            <mxPoint x="40" y="891" as="sourcePoint" />
            <mxPoint x="640" y="891" as="targetPoint" />
          </mxGeometry>
        </mxCell>
        <mxCell id="6_FbaeLzQHJs3EB26zUK-16" value="Client-Master" style="edgeLabel;resizable=1;html=1;align=left;verticalAlign=bottom;movable=1;rotatable=1;deletable=1;editable=1;locked=0;connectable=1;" parent="6_FbaeLzQHJs3EB26zUK-15" connectable="0" vertex="1">
          <mxGeometry x="-1" relative="1" as="geometry">
            <mxPoint x="-2" as="offset" />
          </mxGeometry>
        </mxCell>
        <mxCell id="6_FbaeLzQHJs3EB26zUK-17" value="" style="shape=waypoint;sketch=0;fillStyle=solid;size=6;pointerEvents=1;points=[];fillColor=none;resizable=0;rotatable=0;perimeter=centerPerimeter;snapToPoint=1;" parent="1" vertex="1">
          <mxGeometry x="149" y="881" width="20" height="20" as="geometry" />
        </mxCell>
        <mxCell id="6_FbaeLzQHJs3EB26zUK-18" value="" style="shape=waypoint;sketch=0;fillStyle=solid;size=6;pointerEvents=1;points=[];fillColor=none;resizable=0;rotatable=0;perimeter=centerPerimeter;snapToPoint=1;" parent="1" vertex="1">
          <mxGeometry x="232" y="881" width="20" height="20" as="geometry" />
        </mxCell>
        <mxCell id="6_FbaeLzQHJs3EB26zUK-19" value="" style="shape=waypoint;sketch=0;fillStyle=solid;size=6;pointerEvents=1;points=[];fillColor=none;resizable=0;rotatable=0;perimeter=centerPerimeter;snapToPoint=1;" parent="1" vertex="1">
          <mxGeometry x="310" y="881" width="20" height="20" as="geometry" />
        </mxCell>
        <mxCell id="6_FbaeLzQHJs3EB26zUK-20" value="" style="shape=waypoint;sketch=0;fillStyle=solid;size=6;pointerEvents=1;points=[];fillColor=none;resizable=0;rotatable=0;perimeter=centerPerimeter;snapToPoint=1;" parent="1" vertex="1">
          <mxGeometry x="390" y="881" width="20" height="20" as="geometry" />
        </mxCell>
        <mxCell id="6_FbaeLzQHJs3EB26zUK-21" value="" style="shape=waypoint;sketch=0;fillStyle=solid;size=6;pointerEvents=1;points=[];fillColor=none;resizable=0;rotatable=0;perimeter=centerPerimeter;snapToPoint=1;" parent="1" vertex="1">
          <mxGeometry x="470" y="880" width="20" height="20" as="geometry" />
        </mxCell>
      </root>
    </mxGraphModel>
  </diagram>
</mxfile>
